<mxfile host="app.diagrams.net" modified="2023-06-21T09:52:49.505Z" agent="Mozilla/5.0 (Macintosh; Intel Mac OS X 10_15_7) AppleWebKit/537.36 (KHTML, like Gecko) Chrome/114.0.0.0 Safari/537.36" etag="4p--CawBlxz5x1RD4Hr1" version="21.1.4" type="github">
  <diagram name="Page-1" id="hPcPLITdutO6HpHOFYm8">
    <mxGraphModel dx="1026" dy="642" grid="1" gridSize="10" guides="1" tooltips="1" connect="1" arrows="1" fold="1" page="1" pageScale="1" pageWidth="850" pageHeight="1100" math="0" shadow="0">
      <root>
        <mxCell id="0" />
        <mxCell id="1" parent="0" />
        <mxCell id="a7ma3O0yD8hpmNrmLk-x-25" value="" style="shape=image;html=1;verticalAlign=top;verticalLabelPosition=bottom;labelBackgroundColor=#ffffff;imageAspect=0;aspect=fixed;image=https://cdn1.iconfinder.com/data/icons/bootstrap-vol-3/16/hexagon-128.png" vertex="1" parent="1">
          <mxGeometry x="10" y="20" width="50" height="50" as="geometry" />
        </mxCell>
        <mxCell id="a7ma3O0yD8hpmNrmLk-x-26" value="" style="group" vertex="1" connectable="0" parent="1">
          <mxGeometry x="60" y="120" width="110" height="130" as="geometry" />
        </mxCell>
        <mxCell id="a7ma3O0yD8hpmNrmLk-x-16" value="" style="shape=image;html=1;verticalAlign=top;verticalLabelPosition=bottom;labelBackgroundColor=#ffffff;imageAspect=0;aspect=fixed;image=https://cdn1.iconfinder.com/data/icons/bootstrap-vol-3/16/hexagon-128.png" vertex="1" parent="a7ma3O0yD8hpmNrmLk-x-26">
          <mxGeometry y="40" width="50" height="50" as="geometry" />
        </mxCell>
        <mxCell id="a7ma3O0yD8hpmNrmLk-x-20" value="" style="shape=image;html=1;verticalAlign=top;verticalLabelPosition=bottom;labelBackgroundColor=#ffffff;imageAspect=0;aspect=fixed;image=https://cdn1.iconfinder.com/data/icons/bootstrap-vol-3/16/hexagon-128.png" vertex="1" parent="a7ma3O0yD8hpmNrmLk-x-26">
          <mxGeometry x="40" y="40" width="50" height="50" as="geometry" />
        </mxCell>
        <mxCell id="a7ma3O0yD8hpmNrmLk-x-21" value="" style="shape=image;html=1;verticalAlign=top;verticalLabelPosition=bottom;labelBackgroundColor=#ffffff;imageAspect=0;aspect=fixed;image=https://cdn1.iconfinder.com/data/icons/bootstrap-vol-3/16/hexagon-128.png" vertex="1" parent="a7ma3O0yD8hpmNrmLk-x-26">
          <mxGeometry x="20" width="50" height="50" as="geometry" />
        </mxCell>
        <mxCell id="a7ma3O0yD8hpmNrmLk-x-22" value="" style="shape=image;html=1;verticalAlign=top;verticalLabelPosition=bottom;labelBackgroundColor=#ffffff;imageAspect=0;aspect=fixed;image=https://cdn1.iconfinder.com/data/icons/bootstrap-vol-3/16/hexagon-128.png" vertex="1" parent="a7ma3O0yD8hpmNrmLk-x-26">
          <mxGeometry x="20" y="80" width="50" height="50" as="geometry" />
        </mxCell>
        <mxCell id="a7ma3O0yD8hpmNrmLk-x-23" value="" style="shape=image;html=1;verticalAlign=top;verticalLabelPosition=bottom;labelBackgroundColor=#ffffff;imageAspect=0;aspect=fixed;image=https://cdn1.iconfinder.com/data/icons/bootstrap-vol-3/16/hexagon-128.png" vertex="1" parent="a7ma3O0yD8hpmNrmLk-x-26">
          <mxGeometry x="60" width="50" height="50" as="geometry" />
        </mxCell>
        <mxCell id="a7ma3O0yD8hpmNrmLk-x-24" value="" style="shape=image;html=1;verticalAlign=top;verticalLabelPosition=bottom;labelBackgroundColor=#ffffff;imageAspect=0;aspect=fixed;image=https://cdn1.iconfinder.com/data/icons/bootstrap-vol-3/16/hexagon-128.png" vertex="1" parent="a7ma3O0yD8hpmNrmLk-x-26">
          <mxGeometry x="60" y="80" width="50" height="50" as="geometry" />
        </mxCell>
        <mxCell id="a7ma3O0yD8hpmNrmLk-x-161" value="" style="shape=image;html=1;verticalAlign=top;verticalLabelPosition=bottom;labelBackgroundColor=#ffffff;imageAspect=0;aspect=fixed;image=https://cdn4.iconfinder.com/data/icons/hexagon-black-social/60/location-128.png" vertex="1" parent="a7ma3O0yD8hpmNrmLk-x-26">
          <mxGeometry x="20" y="80" width="50" height="50" as="geometry" />
        </mxCell>
        <mxCell id="a7ma3O0yD8hpmNrmLk-x-27" value="" style="group" vertex="1" connectable="0" parent="1">
          <mxGeometry x="140" y="120" width="110" height="130" as="geometry" />
        </mxCell>
        <mxCell id="a7ma3O0yD8hpmNrmLk-x-28" value="" style="shape=image;html=1;verticalAlign=top;verticalLabelPosition=bottom;labelBackgroundColor=#ffffff;imageAspect=0;aspect=fixed;image=https://cdn1.iconfinder.com/data/icons/bootstrap-vol-3/16/hexagon-128.png" vertex="1" parent="a7ma3O0yD8hpmNrmLk-x-27">
          <mxGeometry y="40" width="50" height="50" as="geometry" />
        </mxCell>
        <mxCell id="a7ma3O0yD8hpmNrmLk-x-29" value="" style="shape=image;html=1;verticalAlign=top;verticalLabelPosition=bottom;labelBackgroundColor=#ffffff;imageAspect=0;aspect=fixed;image=https://cdn1.iconfinder.com/data/icons/bootstrap-vol-3/16/hexagon-128.png" vertex="1" parent="a7ma3O0yD8hpmNrmLk-x-27">
          <mxGeometry x="40" y="40" width="50" height="50" as="geometry" />
        </mxCell>
        <mxCell id="a7ma3O0yD8hpmNrmLk-x-30" value="" style="shape=image;html=1;verticalAlign=top;verticalLabelPosition=bottom;labelBackgroundColor=#ffffff;imageAspect=0;aspect=fixed;image=https://cdn1.iconfinder.com/data/icons/bootstrap-vol-3/16/hexagon-128.png" vertex="1" parent="a7ma3O0yD8hpmNrmLk-x-27">
          <mxGeometry x="20" width="50" height="50" as="geometry" />
        </mxCell>
        <mxCell id="a7ma3O0yD8hpmNrmLk-x-31" value="" style="shape=image;html=1;verticalAlign=top;verticalLabelPosition=bottom;labelBackgroundColor=#ffffff;imageAspect=0;aspect=fixed;image=https://cdn1.iconfinder.com/data/icons/bootstrap-vol-3/16/hexagon-128.png" vertex="1" parent="a7ma3O0yD8hpmNrmLk-x-27">
          <mxGeometry x="20" y="80" width="50" height="50" as="geometry" />
        </mxCell>
        <mxCell id="a7ma3O0yD8hpmNrmLk-x-32" value="" style="shape=image;html=1;verticalAlign=top;verticalLabelPosition=bottom;labelBackgroundColor=#ffffff;imageAspect=0;aspect=fixed;image=https://cdn1.iconfinder.com/data/icons/bootstrap-vol-3/16/hexagon-128.png" vertex="1" parent="a7ma3O0yD8hpmNrmLk-x-27">
          <mxGeometry x="60" width="50" height="50" as="geometry" />
        </mxCell>
        <mxCell id="a7ma3O0yD8hpmNrmLk-x-33" value="" style="shape=image;html=1;verticalAlign=top;verticalLabelPosition=bottom;labelBackgroundColor=#ffffff;imageAspect=0;aspect=fixed;image=https://cdn1.iconfinder.com/data/icons/bootstrap-vol-3/16/hexagon-128.png" vertex="1" parent="a7ma3O0yD8hpmNrmLk-x-27">
          <mxGeometry x="60" y="80" width="50" height="50" as="geometry" />
        </mxCell>
        <mxCell id="a7ma3O0yD8hpmNrmLk-x-34" value="" style="group" vertex="1" connectable="0" parent="1">
          <mxGeometry x="220" y="120" width="110" height="130" as="geometry" />
        </mxCell>
        <mxCell id="a7ma3O0yD8hpmNrmLk-x-35" value="" style="shape=image;html=1;verticalAlign=top;verticalLabelPosition=bottom;labelBackgroundColor=#ffffff;imageAspect=0;aspect=fixed;image=https://cdn1.iconfinder.com/data/icons/bootstrap-vol-3/16/hexagon-128.png" vertex="1" parent="a7ma3O0yD8hpmNrmLk-x-34">
          <mxGeometry y="40" width="50" height="50" as="geometry" />
        </mxCell>
        <mxCell id="a7ma3O0yD8hpmNrmLk-x-36" value="" style="shape=image;html=1;verticalAlign=top;verticalLabelPosition=bottom;labelBackgroundColor=#ffffff;imageAspect=0;aspect=fixed;image=https://cdn1.iconfinder.com/data/icons/bootstrap-vol-3/16/hexagon-128.png" vertex="1" parent="a7ma3O0yD8hpmNrmLk-x-34">
          <mxGeometry x="40" y="40" width="50" height="50" as="geometry" />
        </mxCell>
        <mxCell id="a7ma3O0yD8hpmNrmLk-x-37" value="" style="shape=image;html=1;verticalAlign=top;verticalLabelPosition=bottom;labelBackgroundColor=#ffffff;imageAspect=0;aspect=fixed;image=https://cdn1.iconfinder.com/data/icons/bootstrap-vol-3/16/hexagon-128.png" vertex="1" parent="a7ma3O0yD8hpmNrmLk-x-34">
          <mxGeometry x="20" width="50" height="50" as="geometry" />
        </mxCell>
        <mxCell id="a7ma3O0yD8hpmNrmLk-x-38" value="" style="shape=image;html=1;verticalAlign=top;verticalLabelPosition=bottom;labelBackgroundColor=#ffffff;imageAspect=0;aspect=fixed;image=https://cdn1.iconfinder.com/data/icons/bootstrap-vol-3/16/hexagon-128.png" vertex="1" parent="a7ma3O0yD8hpmNrmLk-x-34">
          <mxGeometry x="20" y="80" width="50" height="50" as="geometry" />
        </mxCell>
        <mxCell id="a7ma3O0yD8hpmNrmLk-x-39" value="" style="shape=image;html=1;verticalAlign=top;verticalLabelPosition=bottom;labelBackgroundColor=#ffffff;imageAspect=0;aspect=fixed;image=https://cdn1.iconfinder.com/data/icons/bootstrap-vol-3/16/hexagon-128.png" vertex="1" parent="a7ma3O0yD8hpmNrmLk-x-34">
          <mxGeometry x="60" width="50" height="50" as="geometry" />
        </mxCell>
        <mxCell id="a7ma3O0yD8hpmNrmLk-x-40" value="" style="shape=image;html=1;verticalAlign=top;verticalLabelPosition=bottom;labelBackgroundColor=#ffffff;imageAspect=0;aspect=fixed;image=https://cdn1.iconfinder.com/data/icons/bootstrap-vol-3/16/hexagon-128.png" vertex="1" parent="a7ma3O0yD8hpmNrmLk-x-34">
          <mxGeometry x="60" y="80" width="50" height="50" as="geometry" />
        </mxCell>
        <mxCell id="a7ma3O0yD8hpmNrmLk-x-41" value="" style="group" vertex="1" connectable="0" parent="1">
          <mxGeometry x="300" y="120" width="110" height="130" as="geometry" />
        </mxCell>
        <mxCell id="a7ma3O0yD8hpmNrmLk-x-42" value="" style="shape=image;html=1;verticalAlign=top;verticalLabelPosition=bottom;labelBackgroundColor=#ffffff;imageAspect=0;aspect=fixed;image=https://cdn1.iconfinder.com/data/icons/bootstrap-vol-3/16/hexagon-128.png" vertex="1" parent="a7ma3O0yD8hpmNrmLk-x-41">
          <mxGeometry y="40" width="50" height="50" as="geometry" />
        </mxCell>
        <mxCell id="a7ma3O0yD8hpmNrmLk-x-43" value="" style="shape=image;html=1;verticalAlign=top;verticalLabelPosition=bottom;labelBackgroundColor=#ffffff;imageAspect=0;aspect=fixed;image=https://cdn1.iconfinder.com/data/icons/bootstrap-vol-3/16/hexagon-128.png" vertex="1" parent="a7ma3O0yD8hpmNrmLk-x-41">
          <mxGeometry x="40" y="40" width="50" height="50" as="geometry" />
        </mxCell>
        <mxCell id="a7ma3O0yD8hpmNrmLk-x-44" value="" style="shape=image;html=1;verticalAlign=top;verticalLabelPosition=bottom;labelBackgroundColor=#ffffff;imageAspect=0;aspect=fixed;image=https://cdn1.iconfinder.com/data/icons/bootstrap-vol-3/16/hexagon-128.png" vertex="1" parent="a7ma3O0yD8hpmNrmLk-x-41">
          <mxGeometry x="20" width="50" height="50" as="geometry" />
        </mxCell>
        <mxCell id="a7ma3O0yD8hpmNrmLk-x-45" value="" style="shape=image;html=1;verticalAlign=top;verticalLabelPosition=bottom;labelBackgroundColor=#ffffff;imageAspect=0;aspect=fixed;image=https://cdn1.iconfinder.com/data/icons/bootstrap-vol-3/16/hexagon-128.png" vertex="1" parent="a7ma3O0yD8hpmNrmLk-x-41">
          <mxGeometry x="20" y="80" width="50" height="50" as="geometry" />
        </mxCell>
        <mxCell id="a7ma3O0yD8hpmNrmLk-x-46" value="" style="shape=image;html=1;verticalAlign=top;verticalLabelPosition=bottom;labelBackgroundColor=#ffffff;imageAspect=0;aspect=fixed;image=https://cdn1.iconfinder.com/data/icons/bootstrap-vol-3/16/hexagon-128.png" vertex="1" parent="a7ma3O0yD8hpmNrmLk-x-41">
          <mxGeometry x="60" width="50" height="50" as="geometry" />
        </mxCell>
        <mxCell id="a7ma3O0yD8hpmNrmLk-x-47" value="" style="shape=image;html=1;verticalAlign=top;verticalLabelPosition=bottom;labelBackgroundColor=#ffffff;imageAspect=0;aspect=fixed;image=https://cdn1.iconfinder.com/data/icons/bootstrap-vol-3/16/hexagon-128.png" vertex="1" parent="a7ma3O0yD8hpmNrmLk-x-41">
          <mxGeometry x="60" y="80" width="50" height="50" as="geometry" />
        </mxCell>
        <mxCell id="a7ma3O0yD8hpmNrmLk-x-48" value="" style="group" vertex="1" connectable="0" parent="1">
          <mxGeometry x="380" y="120" width="110" height="130" as="geometry" />
        </mxCell>
        <mxCell id="a7ma3O0yD8hpmNrmLk-x-49" value="" style="shape=image;html=1;verticalAlign=top;verticalLabelPosition=bottom;labelBackgroundColor=#ffffff;imageAspect=0;aspect=fixed;image=https://cdn1.iconfinder.com/data/icons/bootstrap-vol-3/16/hexagon-128.png" vertex="1" parent="a7ma3O0yD8hpmNrmLk-x-48">
          <mxGeometry y="40" width="50" height="50" as="geometry" />
        </mxCell>
        <mxCell id="a7ma3O0yD8hpmNrmLk-x-50" value="" style="shape=image;html=1;verticalAlign=top;verticalLabelPosition=bottom;labelBackgroundColor=#ffffff;imageAspect=0;aspect=fixed;image=https://cdn1.iconfinder.com/data/icons/bootstrap-vol-3/16/hexagon-128.png" vertex="1" parent="a7ma3O0yD8hpmNrmLk-x-48">
          <mxGeometry x="40" y="40" width="50" height="50" as="geometry" />
        </mxCell>
        <mxCell id="a7ma3O0yD8hpmNrmLk-x-51" value="" style="shape=image;html=1;verticalAlign=top;verticalLabelPosition=bottom;labelBackgroundColor=#ffffff;imageAspect=0;aspect=fixed;image=https://cdn1.iconfinder.com/data/icons/bootstrap-vol-3/16/hexagon-128.png" vertex="1" parent="a7ma3O0yD8hpmNrmLk-x-48">
          <mxGeometry x="20" width="50" height="50" as="geometry" />
        </mxCell>
        <mxCell id="a7ma3O0yD8hpmNrmLk-x-52" value="" style="shape=image;html=1;verticalAlign=top;verticalLabelPosition=bottom;labelBackgroundColor=#ffffff;imageAspect=0;aspect=fixed;image=https://cdn1.iconfinder.com/data/icons/bootstrap-vol-3/16/hexagon-128.png" vertex="1" parent="a7ma3O0yD8hpmNrmLk-x-48">
          <mxGeometry x="20" y="80" width="50" height="50" as="geometry" />
        </mxCell>
        <mxCell id="a7ma3O0yD8hpmNrmLk-x-53" value="" style="shape=image;html=1;verticalAlign=top;verticalLabelPosition=bottom;labelBackgroundColor=#ffffff;imageAspect=0;aspect=fixed;image=https://cdn1.iconfinder.com/data/icons/bootstrap-vol-3/16/hexagon-128.png" vertex="1" parent="a7ma3O0yD8hpmNrmLk-x-48">
          <mxGeometry x="60" width="50" height="50" as="geometry" />
        </mxCell>
        <mxCell id="a7ma3O0yD8hpmNrmLk-x-54" value="" style="shape=image;html=1;verticalAlign=top;verticalLabelPosition=bottom;labelBackgroundColor=#ffffff;imageAspect=0;aspect=fixed;image=https://cdn1.iconfinder.com/data/icons/bootstrap-vol-3/16/hexagon-128.png" vertex="1" parent="a7ma3O0yD8hpmNrmLk-x-48">
          <mxGeometry x="60" y="80" width="50" height="50" as="geometry" />
        </mxCell>
        <mxCell id="a7ma3O0yD8hpmNrmLk-x-125" value="" style="group" vertex="1" connectable="0" parent="1">
          <mxGeometry x="80" y="240" width="110" height="130" as="geometry" />
        </mxCell>
        <mxCell id="a7ma3O0yD8hpmNrmLk-x-126" value="" style="shape=image;html=1;verticalAlign=top;verticalLabelPosition=bottom;labelBackgroundColor=#ffffff;imageAspect=0;aspect=fixed;image=https://cdn1.iconfinder.com/data/icons/bootstrap-vol-3/16/hexagon-128.png" vertex="1" parent="a7ma3O0yD8hpmNrmLk-x-125">
          <mxGeometry y="40" width="50" height="50" as="geometry" />
        </mxCell>
        <mxCell id="a7ma3O0yD8hpmNrmLk-x-127" value="" style="shape=image;html=1;verticalAlign=top;verticalLabelPosition=bottom;labelBackgroundColor=#ffffff;imageAspect=0;aspect=fixed;image=https://cdn1.iconfinder.com/data/icons/bootstrap-vol-3/16/hexagon-128.png" vertex="1" parent="a7ma3O0yD8hpmNrmLk-x-125">
          <mxGeometry x="40" y="40" width="50" height="50" as="geometry" />
        </mxCell>
        <mxCell id="a7ma3O0yD8hpmNrmLk-x-128" value="" style="shape=image;html=1;verticalAlign=top;verticalLabelPosition=bottom;labelBackgroundColor=#ffffff;imageAspect=0;aspect=fixed;image=https://cdn1.iconfinder.com/data/icons/bootstrap-vol-3/16/hexagon-128.png" vertex="1" parent="a7ma3O0yD8hpmNrmLk-x-125">
          <mxGeometry x="20" width="50" height="50" as="geometry" />
        </mxCell>
        <mxCell id="a7ma3O0yD8hpmNrmLk-x-129" value="" style="shape=image;html=1;verticalAlign=top;verticalLabelPosition=bottom;labelBackgroundColor=#ffffff;imageAspect=0;aspect=fixed;image=https://cdn1.iconfinder.com/data/icons/bootstrap-vol-3/16/hexagon-128.png" vertex="1" parent="a7ma3O0yD8hpmNrmLk-x-125">
          <mxGeometry x="20" y="80" width="50" height="50" as="geometry" />
        </mxCell>
        <mxCell id="a7ma3O0yD8hpmNrmLk-x-130" value="" style="shape=image;html=1;verticalAlign=top;verticalLabelPosition=bottom;labelBackgroundColor=#ffffff;imageAspect=0;aspect=fixed;image=https://cdn1.iconfinder.com/data/icons/bootstrap-vol-3/16/hexagon-128.png" vertex="1" parent="a7ma3O0yD8hpmNrmLk-x-125">
          <mxGeometry x="60" width="50" height="50" as="geometry" />
        </mxCell>
        <mxCell id="a7ma3O0yD8hpmNrmLk-x-131" value="" style="shape=image;html=1;verticalAlign=top;verticalLabelPosition=bottom;labelBackgroundColor=#ffffff;imageAspect=0;aspect=fixed;image=https://cdn1.iconfinder.com/data/icons/bootstrap-vol-3/16/hexagon-128.png" vertex="1" parent="a7ma3O0yD8hpmNrmLk-x-125">
          <mxGeometry x="60" y="80" width="50" height="50" as="geometry" />
        </mxCell>
        <mxCell id="a7ma3O0yD8hpmNrmLk-x-471" value="F" style="text;html=1;align=center;verticalAlign=middle;resizable=0;points=[];autosize=1;strokeColor=none;fillColor=none;" vertex="1" parent="a7ma3O0yD8hpmNrmLk-x-125">
          <mxGeometry x="-10" y="90" width="30" height="30" as="geometry" />
        </mxCell>
        <mxCell id="a7ma3O0yD8hpmNrmLk-x-468" value="D" style="text;html=1;align=center;verticalAlign=middle;resizable=0;points=[];autosize=1;strokeColor=none;fillColor=none;" vertex="1" parent="a7ma3O0yD8hpmNrmLk-x-125">
          <mxGeometry x="-10" y="10" width="30" height="30" as="geometry" />
        </mxCell>
        <mxCell id="a7ma3O0yD8hpmNrmLk-x-132" value="" style="group" vertex="1" connectable="0" parent="1">
          <mxGeometry x="160" y="240" width="110" height="130" as="geometry" />
        </mxCell>
        <mxCell id="a7ma3O0yD8hpmNrmLk-x-133" value="" style="shape=image;html=1;verticalAlign=top;verticalLabelPosition=bottom;labelBackgroundColor=#ffffff;imageAspect=0;aspect=fixed;image=https://cdn1.iconfinder.com/data/icons/bootstrap-vol-3/16/hexagon-128.png" vertex="1" parent="a7ma3O0yD8hpmNrmLk-x-132">
          <mxGeometry y="40" width="50" height="50" as="geometry" />
        </mxCell>
        <mxCell id="a7ma3O0yD8hpmNrmLk-x-134" value="" style="shape=image;html=1;verticalAlign=top;verticalLabelPosition=bottom;labelBackgroundColor=#ffffff;imageAspect=0;aspect=fixed;image=https://cdn1.iconfinder.com/data/icons/bootstrap-vol-3/16/hexagon-128.png" vertex="1" parent="a7ma3O0yD8hpmNrmLk-x-132">
          <mxGeometry x="40" y="40" width="50" height="50" as="geometry" />
        </mxCell>
        <mxCell id="a7ma3O0yD8hpmNrmLk-x-135" value="" style="shape=image;html=1;verticalAlign=top;verticalLabelPosition=bottom;labelBackgroundColor=#ffffff;imageAspect=0;aspect=fixed;image=https://cdn1.iconfinder.com/data/icons/bootstrap-vol-3/16/hexagon-128.png" vertex="1" parent="a7ma3O0yD8hpmNrmLk-x-132">
          <mxGeometry x="20" width="50" height="50" as="geometry" />
        </mxCell>
        <mxCell id="a7ma3O0yD8hpmNrmLk-x-136" value="" style="shape=image;html=1;verticalAlign=top;verticalLabelPosition=bottom;labelBackgroundColor=#ffffff;imageAspect=0;aspect=fixed;image=https://cdn1.iconfinder.com/data/icons/bootstrap-vol-3/16/hexagon-128.png" vertex="1" parent="a7ma3O0yD8hpmNrmLk-x-132">
          <mxGeometry x="20" y="80" width="50" height="50" as="geometry" />
        </mxCell>
        <mxCell id="a7ma3O0yD8hpmNrmLk-x-137" value="" style="shape=image;html=1;verticalAlign=top;verticalLabelPosition=bottom;labelBackgroundColor=#ffffff;imageAspect=0;aspect=fixed;image=https://cdn1.iconfinder.com/data/icons/bootstrap-vol-3/16/hexagon-128.png" vertex="1" parent="a7ma3O0yD8hpmNrmLk-x-132">
          <mxGeometry x="60" width="50" height="50" as="geometry" />
        </mxCell>
        <mxCell id="a7ma3O0yD8hpmNrmLk-x-138" value="" style="shape=image;html=1;verticalAlign=top;verticalLabelPosition=bottom;labelBackgroundColor=#ffffff;imageAspect=0;aspect=fixed;image=https://cdn1.iconfinder.com/data/icons/bootstrap-vol-3/16/hexagon-128.png" vertex="1" parent="a7ma3O0yD8hpmNrmLk-x-132">
          <mxGeometry x="60" y="80" width="50" height="50" as="geometry" />
        </mxCell>
        <mxCell id="a7ma3O0yD8hpmNrmLk-x-139" value="" style="group" vertex="1" connectable="0" parent="1">
          <mxGeometry x="240" y="240" width="110" height="130" as="geometry" />
        </mxCell>
        <mxCell id="a7ma3O0yD8hpmNrmLk-x-140" value="" style="shape=image;html=1;verticalAlign=top;verticalLabelPosition=bottom;labelBackgroundColor=#ffffff;imageAspect=0;aspect=fixed;image=https://cdn1.iconfinder.com/data/icons/bootstrap-vol-3/16/hexagon-128.png" vertex="1" parent="a7ma3O0yD8hpmNrmLk-x-139">
          <mxGeometry y="40" width="50" height="50" as="geometry" />
        </mxCell>
        <mxCell id="a7ma3O0yD8hpmNrmLk-x-141" value="" style="shape=image;html=1;verticalAlign=top;verticalLabelPosition=bottom;labelBackgroundColor=#ffffff;imageAspect=0;aspect=fixed;image=https://cdn1.iconfinder.com/data/icons/bootstrap-vol-3/16/hexagon-128.png" vertex="1" parent="a7ma3O0yD8hpmNrmLk-x-139">
          <mxGeometry x="40" y="40" width="50" height="50" as="geometry" />
        </mxCell>
        <mxCell id="a7ma3O0yD8hpmNrmLk-x-142" value="" style="shape=image;html=1;verticalAlign=top;verticalLabelPosition=bottom;labelBackgroundColor=#ffffff;imageAspect=0;aspect=fixed;image=https://cdn1.iconfinder.com/data/icons/bootstrap-vol-3/16/hexagon-128.png" vertex="1" parent="a7ma3O0yD8hpmNrmLk-x-139">
          <mxGeometry x="20" width="50" height="50" as="geometry" />
        </mxCell>
        <mxCell id="a7ma3O0yD8hpmNrmLk-x-143" value="" style="shape=image;html=1;verticalAlign=top;verticalLabelPosition=bottom;labelBackgroundColor=#ffffff;imageAspect=0;aspect=fixed;image=https://cdn1.iconfinder.com/data/icons/bootstrap-vol-3/16/hexagon-128.png" vertex="1" parent="a7ma3O0yD8hpmNrmLk-x-139">
          <mxGeometry x="20" y="80" width="50" height="50" as="geometry" />
        </mxCell>
        <mxCell id="a7ma3O0yD8hpmNrmLk-x-144" value="" style="shape=image;html=1;verticalAlign=top;verticalLabelPosition=bottom;labelBackgroundColor=#ffffff;imageAspect=0;aspect=fixed;image=https://cdn1.iconfinder.com/data/icons/bootstrap-vol-3/16/hexagon-128.png" vertex="1" parent="a7ma3O0yD8hpmNrmLk-x-139">
          <mxGeometry x="60" width="50" height="50" as="geometry" />
        </mxCell>
        <mxCell id="a7ma3O0yD8hpmNrmLk-x-145" value="" style="shape=image;html=1;verticalAlign=top;verticalLabelPosition=bottom;labelBackgroundColor=#ffffff;imageAspect=0;aspect=fixed;image=https://cdn1.iconfinder.com/data/icons/bootstrap-vol-3/16/hexagon-128.png" vertex="1" parent="a7ma3O0yD8hpmNrmLk-x-139">
          <mxGeometry x="60" y="80" width="50" height="50" as="geometry" />
        </mxCell>
        <mxCell id="a7ma3O0yD8hpmNrmLk-x-146" value="" style="group" vertex="1" connectable="0" parent="1">
          <mxGeometry x="320" y="240" width="110" height="130" as="geometry" />
        </mxCell>
        <mxCell id="a7ma3O0yD8hpmNrmLk-x-147" value="" style="shape=image;html=1;verticalAlign=top;verticalLabelPosition=bottom;labelBackgroundColor=#ffffff;imageAspect=0;aspect=fixed;image=https://cdn1.iconfinder.com/data/icons/bootstrap-vol-3/16/hexagon-128.png" vertex="1" parent="a7ma3O0yD8hpmNrmLk-x-146">
          <mxGeometry y="40" width="50" height="50" as="geometry" />
        </mxCell>
        <mxCell id="a7ma3O0yD8hpmNrmLk-x-148" value="" style="shape=image;html=1;verticalAlign=top;verticalLabelPosition=bottom;labelBackgroundColor=#ffffff;imageAspect=0;aspect=fixed;image=https://cdn1.iconfinder.com/data/icons/bootstrap-vol-3/16/hexagon-128.png" vertex="1" parent="a7ma3O0yD8hpmNrmLk-x-146">
          <mxGeometry x="40" y="40" width="50" height="50" as="geometry" />
        </mxCell>
        <mxCell id="a7ma3O0yD8hpmNrmLk-x-149" value="" style="shape=image;html=1;verticalAlign=top;verticalLabelPosition=bottom;labelBackgroundColor=#ffffff;imageAspect=0;aspect=fixed;image=https://cdn1.iconfinder.com/data/icons/bootstrap-vol-3/16/hexagon-128.png" vertex="1" parent="a7ma3O0yD8hpmNrmLk-x-146">
          <mxGeometry x="20" width="50" height="50" as="geometry" />
        </mxCell>
        <mxCell id="a7ma3O0yD8hpmNrmLk-x-150" value="" style="shape=image;html=1;verticalAlign=top;verticalLabelPosition=bottom;labelBackgroundColor=#ffffff;imageAspect=0;aspect=fixed;image=https://cdn1.iconfinder.com/data/icons/bootstrap-vol-3/16/hexagon-128.png" vertex="1" parent="a7ma3O0yD8hpmNrmLk-x-146">
          <mxGeometry x="20" y="80" width="50" height="50" as="geometry" />
        </mxCell>
        <mxCell id="a7ma3O0yD8hpmNrmLk-x-151" value="" style="shape=image;html=1;verticalAlign=top;verticalLabelPosition=bottom;labelBackgroundColor=#ffffff;imageAspect=0;aspect=fixed;image=https://cdn1.iconfinder.com/data/icons/bootstrap-vol-3/16/hexagon-128.png" vertex="1" parent="a7ma3O0yD8hpmNrmLk-x-146">
          <mxGeometry x="60" width="50" height="50" as="geometry" />
        </mxCell>
        <mxCell id="a7ma3O0yD8hpmNrmLk-x-152" value="" style="shape=image;html=1;verticalAlign=top;verticalLabelPosition=bottom;labelBackgroundColor=#ffffff;imageAspect=0;aspect=fixed;image=https://cdn1.iconfinder.com/data/icons/bootstrap-vol-3/16/hexagon-128.png" vertex="1" parent="a7ma3O0yD8hpmNrmLk-x-146">
          <mxGeometry x="60" y="80" width="50" height="50" as="geometry" />
        </mxCell>
        <mxCell id="a7ma3O0yD8hpmNrmLk-x-153" value="" style="group" vertex="1" connectable="0" parent="1">
          <mxGeometry x="400" y="240" width="110" height="170" as="geometry" />
        </mxCell>
        <mxCell id="a7ma3O0yD8hpmNrmLk-x-154" value="" style="shape=image;html=1;verticalAlign=top;verticalLabelPosition=bottom;labelBackgroundColor=#ffffff;imageAspect=0;aspect=fixed;image=https://cdn1.iconfinder.com/data/icons/bootstrap-vol-3/16/hexagon-128.png" vertex="1" parent="a7ma3O0yD8hpmNrmLk-x-153">
          <mxGeometry y="40" width="50" height="50" as="geometry" />
        </mxCell>
        <mxCell id="a7ma3O0yD8hpmNrmLk-x-155" value="" style="shape=image;html=1;verticalAlign=top;verticalLabelPosition=bottom;labelBackgroundColor=#ffffff;imageAspect=0;aspect=fixed;image=https://cdn1.iconfinder.com/data/icons/bootstrap-vol-3/16/hexagon-128.png" vertex="1" parent="a7ma3O0yD8hpmNrmLk-x-153">
          <mxGeometry x="40" y="40" width="50" height="50" as="geometry" />
        </mxCell>
        <mxCell id="a7ma3O0yD8hpmNrmLk-x-156" value="" style="shape=image;html=1;verticalAlign=top;verticalLabelPosition=bottom;labelBackgroundColor=#ffffff;imageAspect=0;aspect=fixed;image=https://cdn1.iconfinder.com/data/icons/bootstrap-vol-3/16/hexagon-128.png" vertex="1" parent="a7ma3O0yD8hpmNrmLk-x-153">
          <mxGeometry x="20" width="50" height="50" as="geometry" />
        </mxCell>
        <mxCell id="a7ma3O0yD8hpmNrmLk-x-157" value="" style="shape=image;html=1;verticalAlign=top;verticalLabelPosition=bottom;labelBackgroundColor=#ffffff;imageAspect=0;aspect=fixed;image=https://cdn1.iconfinder.com/data/icons/bootstrap-vol-3/16/hexagon-128.png" vertex="1" parent="a7ma3O0yD8hpmNrmLk-x-153">
          <mxGeometry x="20" y="80" width="50" height="50" as="geometry" />
        </mxCell>
        <mxCell id="a7ma3O0yD8hpmNrmLk-x-158" value="" style="shape=image;html=1;verticalAlign=top;verticalLabelPosition=bottom;labelBackgroundColor=#ffffff;imageAspect=0;aspect=fixed;image=https://cdn1.iconfinder.com/data/icons/bootstrap-vol-3/16/hexagon-128.png" vertex="1" parent="a7ma3O0yD8hpmNrmLk-x-153">
          <mxGeometry x="60" width="50" height="50" as="geometry" />
        </mxCell>
        <mxCell id="a7ma3O0yD8hpmNrmLk-x-159" value="" style="shape=image;html=1;verticalAlign=top;verticalLabelPosition=bottom;labelBackgroundColor=#ffffff;imageAspect=0;aspect=fixed;image=https://cdn1.iconfinder.com/data/icons/bootstrap-vol-3/16/hexagon-128.png" vertex="1" parent="a7ma3O0yD8hpmNrmLk-x-153">
          <mxGeometry x="60" y="80" width="50" height="50" as="geometry" />
        </mxCell>
        <mxCell id="a7ma3O0yD8hpmNrmLk-x-224" value="" style="group;" vertex="1" connectable="0" parent="a7ma3O0yD8hpmNrmLk-x-153">
          <mxGeometry x="-20" y="40" width="130" height="130" as="geometry" />
        </mxCell>
        <mxCell id="a7ma3O0yD8hpmNrmLk-x-160" value="" style="shape=image;html=1;verticalAlign=top;verticalLabelPosition=bottom;labelBackgroundColor=#ffffff;imageAspect=0;aspect=fixed;image=https://cdn4.iconfinder.com/data/icons/miu-hexagon-flat-social/60/location-hexagon-social-media-128.png" vertex="1" parent="a7ma3O0yD8hpmNrmLk-x-224">
          <mxGeometry x="20" width="50" height="50" as="geometry" />
        </mxCell>
        <mxCell id="a7ma3O0yD8hpmNrmLk-x-218" value="" style="shape=image;html=1;verticalAlign=top;verticalLabelPosition=bottom;labelBackgroundColor=#ffffff;imageAspect=0;aspect=fixed;image=https://cdn4.iconfinder.com/data/icons/miu-hexagon-flat-social/60/location-hexagon-social-media-128.png" vertex="1" parent="a7ma3O0yD8hpmNrmLk-x-224">
          <mxGeometry x="60" width="50" height="50" as="geometry" />
        </mxCell>
        <mxCell id="a7ma3O0yD8hpmNrmLk-x-219" value="" style="shape=image;html=1;verticalAlign=top;verticalLabelPosition=bottom;labelBackgroundColor=#ffffff;imageAspect=0;aspect=fixed;image=https://cdn4.iconfinder.com/data/icons/miu-hexagon-flat-social/60/location-hexagon-social-media-128.png" vertex="1" parent="a7ma3O0yD8hpmNrmLk-x-224">
          <mxGeometry x="40" y="40" width="50" height="50" as="geometry" />
        </mxCell>
        <mxCell id="a7ma3O0yD8hpmNrmLk-x-220" value="" style="shape=image;html=1;verticalAlign=top;verticalLabelPosition=bottom;labelBackgroundColor=#ffffff;imageAspect=0;aspect=fixed;image=https://cdn4.iconfinder.com/data/icons/miu-hexagon-flat-social/60/location-hexagon-social-media-128.png" vertex="1" parent="a7ma3O0yD8hpmNrmLk-x-224">
          <mxGeometry x="80" y="40" width="50" height="50" as="geometry" />
        </mxCell>
        <mxCell id="a7ma3O0yD8hpmNrmLk-x-221" value="" style="shape=image;html=1;verticalAlign=top;verticalLabelPosition=bottom;labelBackgroundColor=#ffffff;imageAspect=0;aspect=fixed;image=https://cdn4.iconfinder.com/data/icons/miu-hexagon-flat-social/60/location-hexagon-social-media-128.png" vertex="1" parent="a7ma3O0yD8hpmNrmLk-x-224">
          <mxGeometry x="60" y="80" width="50" height="50" as="geometry" />
        </mxCell>
        <mxCell id="a7ma3O0yD8hpmNrmLk-x-222" value="" style="shape=image;html=1;verticalAlign=top;verticalLabelPosition=bottom;labelBackgroundColor=#ffffff;imageAspect=0;aspect=fixed;image=https://cdn4.iconfinder.com/data/icons/miu-hexagon-flat-social/60/location-hexagon-social-media-128.png" vertex="1" parent="a7ma3O0yD8hpmNrmLk-x-224">
          <mxGeometry x="20" y="80" width="50" height="50" as="geometry" />
        </mxCell>
        <mxCell id="a7ma3O0yD8hpmNrmLk-x-223" value="" style="shape=image;html=1;verticalAlign=top;verticalLabelPosition=bottom;labelBackgroundColor=#ffffff;imageAspect=0;aspect=fixed;image=https://cdn4.iconfinder.com/data/icons/miu-hexagon-flat-social/60/location-hexagon-social-media-128.png" vertex="1" parent="a7ma3O0yD8hpmNrmLk-x-224">
          <mxGeometry y="40" width="50" height="50" as="geometry" />
        </mxCell>
        <mxCell id="a7ma3O0yD8hpmNrmLk-x-162" value="" style="group" vertex="1" connectable="0" parent="1">
          <mxGeometry x="100" y="360" width="110" height="130" as="geometry" />
        </mxCell>
        <mxCell id="a7ma3O0yD8hpmNrmLk-x-163" value="" style="shape=image;html=1;verticalAlign=top;verticalLabelPosition=bottom;labelBackgroundColor=#ffffff;imageAspect=0;aspect=fixed;image=https://cdn1.iconfinder.com/data/icons/bootstrap-vol-3/16/hexagon-128.png" vertex="1" parent="a7ma3O0yD8hpmNrmLk-x-162">
          <mxGeometry y="40" width="50" height="50" as="geometry" />
        </mxCell>
        <mxCell id="a7ma3O0yD8hpmNrmLk-x-164" value="" style="shape=image;html=1;verticalAlign=top;verticalLabelPosition=bottom;labelBackgroundColor=#ffffff;imageAspect=0;aspect=fixed;image=https://cdn1.iconfinder.com/data/icons/bootstrap-vol-3/16/hexagon-128.png" vertex="1" parent="a7ma3O0yD8hpmNrmLk-x-162">
          <mxGeometry x="40" y="40" width="50" height="50" as="geometry" />
        </mxCell>
        <mxCell id="a7ma3O0yD8hpmNrmLk-x-165" value="" style="shape=image;html=1;verticalAlign=top;verticalLabelPosition=bottom;labelBackgroundColor=#ffffff;imageAspect=0;aspect=fixed;image=https://cdn1.iconfinder.com/data/icons/bootstrap-vol-3/16/hexagon-128.png" vertex="1" parent="a7ma3O0yD8hpmNrmLk-x-162">
          <mxGeometry x="20" width="50" height="50" as="geometry" />
        </mxCell>
        <mxCell id="a7ma3O0yD8hpmNrmLk-x-166" value="" style="shape=image;html=1;verticalAlign=top;verticalLabelPosition=bottom;labelBackgroundColor=#ffffff;imageAspect=0;aspect=fixed;image=https://cdn1.iconfinder.com/data/icons/bootstrap-vol-3/16/hexagon-128.png" vertex="1" parent="a7ma3O0yD8hpmNrmLk-x-162">
          <mxGeometry x="20" y="80" width="50" height="50" as="geometry" />
        </mxCell>
        <mxCell id="a7ma3O0yD8hpmNrmLk-x-167" value="" style="shape=image;html=1;verticalAlign=top;verticalLabelPosition=bottom;labelBackgroundColor=#ffffff;imageAspect=0;aspect=fixed;image=https://cdn1.iconfinder.com/data/icons/bootstrap-vol-3/16/hexagon-128.png" vertex="1" parent="a7ma3O0yD8hpmNrmLk-x-162">
          <mxGeometry x="60" width="50" height="50" as="geometry" />
        </mxCell>
        <mxCell id="a7ma3O0yD8hpmNrmLk-x-168" value="" style="shape=image;html=1;verticalAlign=top;verticalLabelPosition=bottom;labelBackgroundColor=#ffffff;imageAspect=0;aspect=fixed;image=https://cdn1.iconfinder.com/data/icons/bootstrap-vol-3/16/hexagon-128.png" vertex="1" parent="a7ma3O0yD8hpmNrmLk-x-162">
          <mxGeometry x="60" y="80" width="50" height="50" as="geometry" />
        </mxCell>
        <mxCell id="a7ma3O0yD8hpmNrmLk-x-474" value="I" style="text;html=1;align=center;verticalAlign=middle;resizable=0;points=[];autosize=1;strokeColor=none;fillColor=none;" vertex="1" parent="a7ma3O0yD8hpmNrmLk-x-162">
          <mxGeometry x="-20" y="90" width="30" height="30" as="geometry" />
        </mxCell>
        <mxCell id="a7ma3O0yD8hpmNrmLk-x-169" value="" style="group" vertex="1" connectable="0" parent="1">
          <mxGeometry x="180" y="360" width="110" height="130" as="geometry" />
        </mxCell>
        <mxCell id="a7ma3O0yD8hpmNrmLk-x-170" value="" style="shape=image;html=1;verticalAlign=top;verticalLabelPosition=bottom;labelBackgroundColor=#ffffff;imageAspect=0;aspect=fixed;image=https://cdn1.iconfinder.com/data/icons/bootstrap-vol-3/16/hexagon-128.png" vertex="1" parent="a7ma3O0yD8hpmNrmLk-x-169">
          <mxGeometry y="40" width="50" height="50" as="geometry" />
        </mxCell>
        <mxCell id="a7ma3O0yD8hpmNrmLk-x-171" value="" style="shape=image;html=1;verticalAlign=top;verticalLabelPosition=bottom;labelBackgroundColor=#ffffff;imageAspect=0;aspect=fixed;image=https://cdn1.iconfinder.com/data/icons/bootstrap-vol-3/16/hexagon-128.png" vertex="1" parent="a7ma3O0yD8hpmNrmLk-x-169">
          <mxGeometry x="40" y="40" width="50" height="50" as="geometry" />
        </mxCell>
        <mxCell id="a7ma3O0yD8hpmNrmLk-x-172" value="" style="shape=image;html=1;verticalAlign=top;verticalLabelPosition=bottom;labelBackgroundColor=#ffffff;imageAspect=0;aspect=fixed;image=https://cdn1.iconfinder.com/data/icons/bootstrap-vol-3/16/hexagon-128.png" vertex="1" parent="a7ma3O0yD8hpmNrmLk-x-169">
          <mxGeometry x="20" width="50" height="50" as="geometry" />
        </mxCell>
        <mxCell id="a7ma3O0yD8hpmNrmLk-x-173" value="" style="shape=image;html=1;verticalAlign=top;verticalLabelPosition=bottom;labelBackgroundColor=#ffffff;imageAspect=0;aspect=fixed;image=https://cdn1.iconfinder.com/data/icons/bootstrap-vol-3/16/hexagon-128.png" vertex="1" parent="a7ma3O0yD8hpmNrmLk-x-169">
          <mxGeometry x="20" y="80" width="50" height="50" as="geometry" />
        </mxCell>
        <mxCell id="a7ma3O0yD8hpmNrmLk-x-174" value="" style="shape=image;html=1;verticalAlign=top;verticalLabelPosition=bottom;labelBackgroundColor=#ffffff;imageAspect=0;aspect=fixed;image=https://cdn1.iconfinder.com/data/icons/bootstrap-vol-3/16/hexagon-128.png" vertex="1" parent="a7ma3O0yD8hpmNrmLk-x-169">
          <mxGeometry x="60" width="50" height="50" as="geometry" />
        </mxCell>
        <mxCell id="a7ma3O0yD8hpmNrmLk-x-175" value="" style="shape=image;html=1;verticalAlign=top;verticalLabelPosition=bottom;labelBackgroundColor=#ffffff;imageAspect=0;aspect=fixed;image=https://cdn1.iconfinder.com/data/icons/bootstrap-vol-3/16/hexagon-128.png" vertex="1" parent="a7ma3O0yD8hpmNrmLk-x-169">
          <mxGeometry x="60" y="80" width="50" height="50" as="geometry" />
        </mxCell>
        <mxCell id="a7ma3O0yD8hpmNrmLk-x-176" value="" style="group" vertex="1" connectable="0" parent="1">
          <mxGeometry x="260" y="360" width="110" height="130" as="geometry" />
        </mxCell>
        <mxCell id="a7ma3O0yD8hpmNrmLk-x-177" value="" style="shape=image;html=1;verticalAlign=top;verticalLabelPosition=bottom;labelBackgroundColor=#ffffff;imageAspect=0;aspect=fixed;image=https://cdn1.iconfinder.com/data/icons/bootstrap-vol-3/16/hexagon-128.png" vertex="1" parent="a7ma3O0yD8hpmNrmLk-x-176">
          <mxGeometry y="40" width="50" height="50" as="geometry" />
        </mxCell>
        <mxCell id="a7ma3O0yD8hpmNrmLk-x-178" value="" style="shape=image;html=1;verticalAlign=top;verticalLabelPosition=bottom;labelBackgroundColor=#ffffff;imageAspect=0;aspect=fixed;image=https://cdn1.iconfinder.com/data/icons/bootstrap-vol-3/16/hexagon-128.png" vertex="1" parent="a7ma3O0yD8hpmNrmLk-x-176">
          <mxGeometry x="40" y="40" width="50" height="50" as="geometry" />
        </mxCell>
        <mxCell id="a7ma3O0yD8hpmNrmLk-x-179" value="" style="shape=image;html=1;verticalAlign=top;verticalLabelPosition=bottom;labelBackgroundColor=#ffffff;imageAspect=0;aspect=fixed;image=https://cdn1.iconfinder.com/data/icons/bootstrap-vol-3/16/hexagon-128.png" vertex="1" parent="a7ma3O0yD8hpmNrmLk-x-176">
          <mxGeometry x="20" width="50" height="50" as="geometry" />
        </mxCell>
        <mxCell id="a7ma3O0yD8hpmNrmLk-x-180" value="" style="shape=image;html=1;verticalAlign=top;verticalLabelPosition=bottom;labelBackgroundColor=#ffffff;imageAspect=0;aspect=fixed;image=https://cdn1.iconfinder.com/data/icons/bootstrap-vol-3/16/hexagon-128.png" vertex="1" parent="a7ma3O0yD8hpmNrmLk-x-176">
          <mxGeometry x="20" y="80" width="50" height="50" as="geometry" />
        </mxCell>
        <mxCell id="a7ma3O0yD8hpmNrmLk-x-181" value="" style="shape=image;html=1;verticalAlign=top;verticalLabelPosition=bottom;labelBackgroundColor=#ffffff;imageAspect=0;aspect=fixed;image=https://cdn1.iconfinder.com/data/icons/bootstrap-vol-3/16/hexagon-128.png" vertex="1" parent="a7ma3O0yD8hpmNrmLk-x-176">
          <mxGeometry x="60" width="50" height="50" as="geometry" />
        </mxCell>
        <mxCell id="a7ma3O0yD8hpmNrmLk-x-182" value="" style="shape=image;html=1;verticalAlign=top;verticalLabelPosition=bottom;labelBackgroundColor=#ffffff;imageAspect=0;aspect=fixed;image=https://cdn1.iconfinder.com/data/icons/bootstrap-vol-3/16/hexagon-128.png" vertex="1" parent="a7ma3O0yD8hpmNrmLk-x-176">
          <mxGeometry x="60" y="80" width="50" height="50" as="geometry" />
        </mxCell>
        <mxCell id="a7ma3O0yD8hpmNrmLk-x-183" value="" style="group" vertex="1" connectable="0" parent="1">
          <mxGeometry x="340" y="360" width="110" height="130" as="geometry" />
        </mxCell>
        <mxCell id="a7ma3O0yD8hpmNrmLk-x-184" value="" style="shape=image;html=1;verticalAlign=top;verticalLabelPosition=bottom;labelBackgroundColor=#ffffff;imageAspect=0;aspect=fixed;image=https://cdn1.iconfinder.com/data/icons/bootstrap-vol-3/16/hexagon-128.png" vertex="1" parent="a7ma3O0yD8hpmNrmLk-x-183">
          <mxGeometry y="40" width="50" height="50" as="geometry" />
        </mxCell>
        <mxCell id="a7ma3O0yD8hpmNrmLk-x-185" value="" style="shape=image;html=1;verticalAlign=top;verticalLabelPosition=bottom;labelBackgroundColor=#ffffff;imageAspect=0;aspect=fixed;image=https://cdn1.iconfinder.com/data/icons/bootstrap-vol-3/16/hexagon-128.png" vertex="1" parent="a7ma3O0yD8hpmNrmLk-x-183">
          <mxGeometry x="40" y="40" width="50" height="50" as="geometry" />
        </mxCell>
        <mxCell id="a7ma3O0yD8hpmNrmLk-x-186" value="" style="shape=image;html=1;verticalAlign=top;verticalLabelPosition=bottom;labelBackgroundColor=#ffffff;imageAspect=0;aspect=fixed;image=https://cdn1.iconfinder.com/data/icons/bootstrap-vol-3/16/hexagon-128.png" vertex="1" parent="a7ma3O0yD8hpmNrmLk-x-183">
          <mxGeometry x="20" width="50" height="50" as="geometry" />
        </mxCell>
        <mxCell id="a7ma3O0yD8hpmNrmLk-x-187" value="" style="shape=image;html=1;verticalAlign=top;verticalLabelPosition=bottom;labelBackgroundColor=#ffffff;imageAspect=0;aspect=fixed;image=https://cdn1.iconfinder.com/data/icons/bootstrap-vol-3/16/hexagon-128.png" vertex="1" parent="a7ma3O0yD8hpmNrmLk-x-183">
          <mxGeometry x="20" y="80" width="50" height="50" as="geometry" />
        </mxCell>
        <mxCell id="a7ma3O0yD8hpmNrmLk-x-188" value="" style="shape=image;html=1;verticalAlign=top;verticalLabelPosition=bottom;labelBackgroundColor=#ffffff;imageAspect=0;aspect=fixed;image=https://cdn1.iconfinder.com/data/icons/bootstrap-vol-3/16/hexagon-128.png" vertex="1" parent="a7ma3O0yD8hpmNrmLk-x-183">
          <mxGeometry x="60" width="50" height="50" as="geometry" />
        </mxCell>
        <mxCell id="a7ma3O0yD8hpmNrmLk-x-189" value="" style="shape=image;html=1;verticalAlign=top;verticalLabelPosition=bottom;labelBackgroundColor=#ffffff;imageAspect=0;aspect=fixed;image=https://cdn1.iconfinder.com/data/icons/bootstrap-vol-3/16/hexagon-128.png" vertex="1" parent="a7ma3O0yD8hpmNrmLk-x-183">
          <mxGeometry x="60" y="80" width="50" height="50" as="geometry" />
        </mxCell>
        <mxCell id="a7ma3O0yD8hpmNrmLk-x-190" value="" style="group" vertex="1" connectable="0" parent="1">
          <mxGeometry x="420" y="360" width="110" height="130" as="geometry" />
        </mxCell>
        <mxCell id="a7ma3O0yD8hpmNrmLk-x-191" value="" style="shape=image;html=1;verticalAlign=top;verticalLabelPosition=bottom;labelBackgroundColor=#ffffff;imageAspect=0;aspect=fixed;image=https://cdn1.iconfinder.com/data/icons/bootstrap-vol-3/16/hexagon-128.png" vertex="1" parent="a7ma3O0yD8hpmNrmLk-x-190">
          <mxGeometry y="40" width="50" height="50" as="geometry" />
        </mxCell>
        <mxCell id="a7ma3O0yD8hpmNrmLk-x-192" value="" style="shape=image;html=1;verticalAlign=top;verticalLabelPosition=bottom;labelBackgroundColor=#ffffff;imageAspect=0;aspect=fixed;image=https://cdn1.iconfinder.com/data/icons/bootstrap-vol-3/16/hexagon-128.png" vertex="1" parent="a7ma3O0yD8hpmNrmLk-x-190">
          <mxGeometry x="40" y="40" width="50" height="50" as="geometry" />
        </mxCell>
        <mxCell id="a7ma3O0yD8hpmNrmLk-x-193" value="" style="shape=image;html=1;verticalAlign=top;verticalLabelPosition=bottom;labelBackgroundColor=#ffffff;imageAspect=0;aspect=fixed;image=https://cdn1.iconfinder.com/data/icons/bootstrap-vol-3/16/hexagon-128.png" vertex="1" parent="a7ma3O0yD8hpmNrmLk-x-190">
          <mxGeometry x="20" width="50" height="50" as="geometry" />
        </mxCell>
        <mxCell id="a7ma3O0yD8hpmNrmLk-x-194" value="" style="shape=image;html=1;verticalAlign=top;verticalLabelPosition=bottom;labelBackgroundColor=#ffffff;imageAspect=0;aspect=fixed;image=https://cdn1.iconfinder.com/data/icons/bootstrap-vol-3/16/hexagon-128.png" vertex="1" parent="a7ma3O0yD8hpmNrmLk-x-190">
          <mxGeometry x="20" y="80" width="50" height="50" as="geometry" />
        </mxCell>
        <mxCell id="a7ma3O0yD8hpmNrmLk-x-195" value="" style="shape=image;html=1;verticalAlign=top;verticalLabelPosition=bottom;labelBackgroundColor=#ffffff;imageAspect=0;aspect=fixed;image=https://cdn1.iconfinder.com/data/icons/bootstrap-vol-3/16/hexagon-128.png" vertex="1" parent="a7ma3O0yD8hpmNrmLk-x-190">
          <mxGeometry x="60" width="50" height="50" as="geometry" />
        </mxCell>
        <mxCell id="a7ma3O0yD8hpmNrmLk-x-196" value="" style="shape=image;html=1;verticalAlign=top;verticalLabelPosition=bottom;labelBackgroundColor=#ffffff;imageAspect=0;aspect=fixed;image=https://cdn1.iconfinder.com/data/icons/bootstrap-vol-3/16/hexagon-128.png" vertex="1" parent="a7ma3O0yD8hpmNrmLk-x-190">
          <mxGeometry x="60" y="80" width="50" height="50" as="geometry" />
        </mxCell>
        <mxCell id="a7ma3O0yD8hpmNrmLk-x-197" value="" style="group" vertex="1" connectable="0" parent="1">
          <mxGeometry x="460" y="120" width="110" height="130" as="geometry" />
        </mxCell>
        <mxCell id="a7ma3O0yD8hpmNrmLk-x-198" value="" style="shape=image;html=1;verticalAlign=top;verticalLabelPosition=bottom;labelBackgroundColor=#ffffff;imageAspect=0;aspect=fixed;image=https://cdn1.iconfinder.com/data/icons/bootstrap-vol-3/16/hexagon-128.png" vertex="1" parent="a7ma3O0yD8hpmNrmLk-x-197">
          <mxGeometry y="40" width="50" height="50" as="geometry" />
        </mxCell>
        <mxCell id="a7ma3O0yD8hpmNrmLk-x-199" value="" style="shape=image;html=1;verticalAlign=top;verticalLabelPosition=bottom;labelBackgroundColor=#ffffff;imageAspect=0;aspect=fixed;image=https://cdn1.iconfinder.com/data/icons/bootstrap-vol-3/16/hexagon-128.png" vertex="1" parent="a7ma3O0yD8hpmNrmLk-x-197">
          <mxGeometry x="40" y="40" width="50" height="50" as="geometry" />
        </mxCell>
        <mxCell id="a7ma3O0yD8hpmNrmLk-x-200" value="" style="shape=image;html=1;verticalAlign=top;verticalLabelPosition=bottom;labelBackgroundColor=#ffffff;imageAspect=0;aspect=fixed;image=https://cdn1.iconfinder.com/data/icons/bootstrap-vol-3/16/hexagon-128.png" vertex="1" parent="a7ma3O0yD8hpmNrmLk-x-197">
          <mxGeometry x="20" width="50" height="50" as="geometry" />
        </mxCell>
        <mxCell id="a7ma3O0yD8hpmNrmLk-x-201" value="" style="shape=image;html=1;verticalAlign=top;verticalLabelPosition=bottom;labelBackgroundColor=#ffffff;imageAspect=0;aspect=fixed;image=https://cdn1.iconfinder.com/data/icons/bootstrap-vol-3/16/hexagon-128.png" vertex="1" parent="a7ma3O0yD8hpmNrmLk-x-197">
          <mxGeometry x="20" y="80" width="50" height="50" as="geometry" />
        </mxCell>
        <mxCell id="a7ma3O0yD8hpmNrmLk-x-202" value="" style="shape=image;html=1;verticalAlign=top;verticalLabelPosition=bottom;labelBackgroundColor=#ffffff;imageAspect=0;aspect=fixed;image=https://cdn1.iconfinder.com/data/icons/bootstrap-vol-3/16/hexagon-128.png" vertex="1" parent="a7ma3O0yD8hpmNrmLk-x-197">
          <mxGeometry x="60" width="50" height="50" as="geometry" />
        </mxCell>
        <mxCell id="a7ma3O0yD8hpmNrmLk-x-203" value="" style="shape=image;html=1;verticalAlign=top;verticalLabelPosition=bottom;labelBackgroundColor=#ffffff;imageAspect=0;aspect=fixed;image=https://cdn1.iconfinder.com/data/icons/bootstrap-vol-3/16/hexagon-128.png" vertex="1" parent="a7ma3O0yD8hpmNrmLk-x-197">
          <mxGeometry x="60" y="80" width="50" height="50" as="geometry" />
        </mxCell>
        <mxCell id="a7ma3O0yD8hpmNrmLk-x-204" value="" style="group" vertex="1" connectable="0" parent="1">
          <mxGeometry x="480" y="240" width="110" height="130" as="geometry" />
        </mxCell>
        <mxCell id="a7ma3O0yD8hpmNrmLk-x-205" value="" style="shape=image;html=1;verticalAlign=top;verticalLabelPosition=bottom;labelBackgroundColor=#ffffff;imageAspect=0;aspect=fixed;image=https://cdn1.iconfinder.com/data/icons/bootstrap-vol-3/16/hexagon-128.png" vertex="1" parent="a7ma3O0yD8hpmNrmLk-x-204">
          <mxGeometry y="40" width="50" height="50" as="geometry" />
        </mxCell>
        <mxCell id="a7ma3O0yD8hpmNrmLk-x-206" value="" style="shape=image;html=1;verticalAlign=top;verticalLabelPosition=bottom;labelBackgroundColor=#ffffff;imageAspect=0;aspect=fixed;image=https://cdn1.iconfinder.com/data/icons/bootstrap-vol-3/16/hexagon-128.png" vertex="1" parent="a7ma3O0yD8hpmNrmLk-x-204">
          <mxGeometry x="40" y="40" width="50" height="50" as="geometry" />
        </mxCell>
        <mxCell id="a7ma3O0yD8hpmNrmLk-x-207" value="" style="shape=image;html=1;verticalAlign=top;verticalLabelPosition=bottom;labelBackgroundColor=#ffffff;imageAspect=0;aspect=fixed;image=https://cdn1.iconfinder.com/data/icons/bootstrap-vol-3/16/hexagon-128.png" vertex="1" parent="a7ma3O0yD8hpmNrmLk-x-204">
          <mxGeometry x="20" width="50" height="50" as="geometry" />
        </mxCell>
        <mxCell id="a7ma3O0yD8hpmNrmLk-x-208" value="" style="shape=image;html=1;verticalAlign=top;verticalLabelPosition=bottom;labelBackgroundColor=#ffffff;imageAspect=0;aspect=fixed;image=https://cdn1.iconfinder.com/data/icons/bootstrap-vol-3/16/hexagon-128.png" vertex="1" parent="a7ma3O0yD8hpmNrmLk-x-204">
          <mxGeometry x="20" y="80" width="50" height="50" as="geometry" />
        </mxCell>
        <mxCell id="a7ma3O0yD8hpmNrmLk-x-209" value="" style="shape=image;html=1;verticalAlign=top;verticalLabelPosition=bottom;labelBackgroundColor=#ffffff;imageAspect=0;aspect=fixed;image=https://cdn1.iconfinder.com/data/icons/bootstrap-vol-3/16/hexagon-128.png" vertex="1" parent="a7ma3O0yD8hpmNrmLk-x-204">
          <mxGeometry x="60" width="50" height="50" as="geometry" />
        </mxCell>
        <mxCell id="a7ma3O0yD8hpmNrmLk-x-210" value="" style="shape=image;html=1;verticalAlign=top;verticalLabelPosition=bottom;labelBackgroundColor=#ffffff;imageAspect=0;aspect=fixed;image=https://cdn1.iconfinder.com/data/icons/bootstrap-vol-3/16/hexagon-128.png" vertex="1" parent="a7ma3O0yD8hpmNrmLk-x-204">
          <mxGeometry x="60" y="80" width="50" height="50" as="geometry" />
        </mxCell>
        <mxCell id="a7ma3O0yD8hpmNrmLk-x-211" value="" style="group" vertex="1" connectable="0" parent="1">
          <mxGeometry x="500" y="360" width="110" height="130" as="geometry" />
        </mxCell>
        <mxCell id="a7ma3O0yD8hpmNrmLk-x-212" value="" style="shape=image;html=1;verticalAlign=top;verticalLabelPosition=bottom;labelBackgroundColor=#ffffff;imageAspect=0;aspect=fixed;image=https://cdn1.iconfinder.com/data/icons/bootstrap-vol-3/16/hexagon-128.png" vertex="1" parent="a7ma3O0yD8hpmNrmLk-x-211">
          <mxGeometry y="40" width="50" height="50" as="geometry" />
        </mxCell>
        <mxCell id="a7ma3O0yD8hpmNrmLk-x-213" value="" style="shape=image;html=1;verticalAlign=top;verticalLabelPosition=bottom;labelBackgroundColor=#ffffff;imageAspect=0;aspect=fixed;image=https://cdn1.iconfinder.com/data/icons/bootstrap-vol-3/16/hexagon-128.png" vertex="1" parent="a7ma3O0yD8hpmNrmLk-x-211">
          <mxGeometry x="40" y="40" width="50" height="50" as="geometry" />
        </mxCell>
        <mxCell id="a7ma3O0yD8hpmNrmLk-x-214" value="" style="shape=image;html=1;verticalAlign=top;verticalLabelPosition=bottom;labelBackgroundColor=#ffffff;imageAspect=0;aspect=fixed;image=https://cdn1.iconfinder.com/data/icons/bootstrap-vol-3/16/hexagon-128.png" vertex="1" parent="a7ma3O0yD8hpmNrmLk-x-211">
          <mxGeometry x="20" width="50" height="50" as="geometry" />
        </mxCell>
        <mxCell id="a7ma3O0yD8hpmNrmLk-x-215" value="" style="shape=image;html=1;verticalAlign=top;verticalLabelPosition=bottom;labelBackgroundColor=#ffffff;imageAspect=0;aspect=fixed;image=https://cdn1.iconfinder.com/data/icons/bootstrap-vol-3/16/hexagon-128.png" vertex="1" parent="a7ma3O0yD8hpmNrmLk-x-211">
          <mxGeometry x="20" y="80" width="50" height="50" as="geometry" />
        </mxCell>
        <mxCell id="a7ma3O0yD8hpmNrmLk-x-216" value="" style="shape=image;html=1;verticalAlign=top;verticalLabelPosition=bottom;labelBackgroundColor=#ffffff;imageAspect=0;aspect=fixed;image=https://cdn1.iconfinder.com/data/icons/bootstrap-vol-3/16/hexagon-128.png" vertex="1" parent="a7ma3O0yD8hpmNrmLk-x-211">
          <mxGeometry x="60" width="50" height="50" as="geometry" />
        </mxCell>
        <mxCell id="a7ma3O0yD8hpmNrmLk-x-217" value="" style="shape=image;html=1;verticalAlign=top;verticalLabelPosition=bottom;labelBackgroundColor=#ffffff;imageAspect=0;aspect=fixed;image=https://cdn1.iconfinder.com/data/icons/bootstrap-vol-3/16/hexagon-128.png" vertex="1" parent="a7ma3O0yD8hpmNrmLk-x-211">
          <mxGeometry x="60" y="80" width="50" height="50" as="geometry" />
        </mxCell>
        <mxCell id="a7ma3O0yD8hpmNrmLk-x-225" value="" style="group" vertex="1" connectable="0" parent="1">
          <mxGeometry x="540" y="120" width="110" height="130" as="geometry" />
        </mxCell>
        <mxCell id="a7ma3O0yD8hpmNrmLk-x-226" value="" style="shape=image;html=1;verticalAlign=top;verticalLabelPosition=bottom;labelBackgroundColor=#ffffff;imageAspect=0;aspect=fixed;image=https://cdn1.iconfinder.com/data/icons/bootstrap-vol-3/16/hexagon-128.png" vertex="1" parent="a7ma3O0yD8hpmNrmLk-x-225">
          <mxGeometry y="40" width="50" height="50" as="geometry" />
        </mxCell>
        <mxCell id="a7ma3O0yD8hpmNrmLk-x-227" value="" style="shape=image;html=1;verticalAlign=top;verticalLabelPosition=bottom;labelBackgroundColor=#ffffff;imageAspect=0;aspect=fixed;image=https://cdn1.iconfinder.com/data/icons/bootstrap-vol-3/16/hexagon-128.png" vertex="1" parent="a7ma3O0yD8hpmNrmLk-x-225">
          <mxGeometry x="40" y="40" width="50" height="50" as="geometry" />
        </mxCell>
        <mxCell id="a7ma3O0yD8hpmNrmLk-x-228" value="" style="shape=image;html=1;verticalAlign=top;verticalLabelPosition=bottom;labelBackgroundColor=#ffffff;imageAspect=0;aspect=fixed;image=https://cdn1.iconfinder.com/data/icons/bootstrap-vol-3/16/hexagon-128.png" vertex="1" parent="a7ma3O0yD8hpmNrmLk-x-225">
          <mxGeometry x="20" width="50" height="50" as="geometry" />
        </mxCell>
        <mxCell id="a7ma3O0yD8hpmNrmLk-x-229" value="" style="shape=image;html=1;verticalAlign=top;verticalLabelPosition=bottom;labelBackgroundColor=#ffffff;imageAspect=0;aspect=fixed;image=https://cdn1.iconfinder.com/data/icons/bootstrap-vol-3/16/hexagon-128.png" vertex="1" parent="a7ma3O0yD8hpmNrmLk-x-225">
          <mxGeometry x="20" y="80" width="50" height="50" as="geometry" />
        </mxCell>
        <mxCell id="a7ma3O0yD8hpmNrmLk-x-230" value="" style="shape=image;html=1;verticalAlign=top;verticalLabelPosition=bottom;labelBackgroundColor=#ffffff;imageAspect=0;aspect=fixed;image=https://cdn1.iconfinder.com/data/icons/bootstrap-vol-3/16/hexagon-128.png" vertex="1" parent="a7ma3O0yD8hpmNrmLk-x-225">
          <mxGeometry x="60" width="50" height="50" as="geometry" />
        </mxCell>
        <mxCell id="a7ma3O0yD8hpmNrmLk-x-231" value="" style="shape=image;html=1;verticalAlign=top;verticalLabelPosition=bottom;labelBackgroundColor=#ffffff;imageAspect=0;aspect=fixed;image=https://cdn1.iconfinder.com/data/icons/bootstrap-vol-3/16/hexagon-128.png" vertex="1" parent="a7ma3O0yD8hpmNrmLk-x-225">
          <mxGeometry x="60" y="80" width="50" height="50" as="geometry" />
        </mxCell>
        <mxCell id="a7ma3O0yD8hpmNrmLk-x-232" value="" style="group" vertex="1" connectable="0" parent="1">
          <mxGeometry x="560" y="240" width="110" height="130" as="geometry" />
        </mxCell>
        <mxCell id="a7ma3O0yD8hpmNrmLk-x-233" value="" style="shape=image;html=1;verticalAlign=top;verticalLabelPosition=bottom;labelBackgroundColor=#ffffff;imageAspect=0;aspect=fixed;image=https://cdn1.iconfinder.com/data/icons/bootstrap-vol-3/16/hexagon-128.png" vertex="1" parent="a7ma3O0yD8hpmNrmLk-x-232">
          <mxGeometry y="40" width="50" height="50" as="geometry" />
        </mxCell>
        <mxCell id="a7ma3O0yD8hpmNrmLk-x-234" value="" style="shape=image;html=1;verticalAlign=top;verticalLabelPosition=bottom;labelBackgroundColor=#ffffff;imageAspect=0;aspect=fixed;image=https://cdn1.iconfinder.com/data/icons/bootstrap-vol-3/16/hexagon-128.png" vertex="1" parent="a7ma3O0yD8hpmNrmLk-x-232">
          <mxGeometry x="40" y="40" width="50" height="50" as="geometry" />
        </mxCell>
        <mxCell id="a7ma3O0yD8hpmNrmLk-x-235" value="" style="shape=image;html=1;verticalAlign=top;verticalLabelPosition=bottom;labelBackgroundColor=#ffffff;imageAspect=0;aspect=fixed;image=https://cdn1.iconfinder.com/data/icons/bootstrap-vol-3/16/hexagon-128.png" vertex="1" parent="a7ma3O0yD8hpmNrmLk-x-232">
          <mxGeometry x="20" width="50" height="50" as="geometry" />
        </mxCell>
        <mxCell id="a7ma3O0yD8hpmNrmLk-x-236" value="" style="shape=image;html=1;verticalAlign=top;verticalLabelPosition=bottom;labelBackgroundColor=#ffffff;imageAspect=0;aspect=fixed;image=https://cdn1.iconfinder.com/data/icons/bootstrap-vol-3/16/hexagon-128.png" vertex="1" parent="a7ma3O0yD8hpmNrmLk-x-232">
          <mxGeometry x="20" y="80" width="50" height="50" as="geometry" />
        </mxCell>
        <mxCell id="a7ma3O0yD8hpmNrmLk-x-237" value="" style="shape=image;html=1;verticalAlign=top;verticalLabelPosition=bottom;labelBackgroundColor=#ffffff;imageAspect=0;aspect=fixed;image=https://cdn1.iconfinder.com/data/icons/bootstrap-vol-3/16/hexagon-128.png" vertex="1" parent="a7ma3O0yD8hpmNrmLk-x-232">
          <mxGeometry x="60" width="50" height="50" as="geometry" />
        </mxCell>
        <mxCell id="a7ma3O0yD8hpmNrmLk-x-238" value="" style="shape=image;html=1;verticalAlign=top;verticalLabelPosition=bottom;labelBackgroundColor=#ffffff;imageAspect=0;aspect=fixed;image=https://cdn1.iconfinder.com/data/icons/bootstrap-vol-3/16/hexagon-128.png" vertex="1" parent="a7ma3O0yD8hpmNrmLk-x-232">
          <mxGeometry x="60" y="80" width="50" height="50" as="geometry" />
        </mxCell>
        <mxCell id="a7ma3O0yD8hpmNrmLk-x-239" value="" style="group" vertex="1" connectable="0" parent="1">
          <mxGeometry x="580" y="360" width="110" height="130" as="geometry" />
        </mxCell>
        <mxCell id="a7ma3O0yD8hpmNrmLk-x-240" value="" style="shape=image;html=1;verticalAlign=top;verticalLabelPosition=bottom;labelBackgroundColor=#ffffff;imageAspect=0;aspect=fixed;image=https://cdn1.iconfinder.com/data/icons/bootstrap-vol-3/16/hexagon-128.png" vertex="1" parent="a7ma3O0yD8hpmNrmLk-x-239">
          <mxGeometry y="40" width="50" height="50" as="geometry" />
        </mxCell>
        <mxCell id="a7ma3O0yD8hpmNrmLk-x-241" value="" style="shape=image;html=1;verticalAlign=top;verticalLabelPosition=bottom;labelBackgroundColor=#ffffff;imageAspect=0;aspect=fixed;image=https://cdn1.iconfinder.com/data/icons/bootstrap-vol-3/16/hexagon-128.png" vertex="1" parent="a7ma3O0yD8hpmNrmLk-x-239">
          <mxGeometry x="40" y="40" width="50" height="50" as="geometry" />
        </mxCell>
        <mxCell id="a7ma3O0yD8hpmNrmLk-x-242" value="" style="shape=image;html=1;verticalAlign=top;verticalLabelPosition=bottom;labelBackgroundColor=#ffffff;imageAspect=0;aspect=fixed;image=https://cdn1.iconfinder.com/data/icons/bootstrap-vol-3/16/hexagon-128.png" vertex="1" parent="a7ma3O0yD8hpmNrmLk-x-239">
          <mxGeometry x="20" width="50" height="50" as="geometry" />
        </mxCell>
        <mxCell id="a7ma3O0yD8hpmNrmLk-x-243" value="" style="shape=image;html=1;verticalAlign=top;verticalLabelPosition=bottom;labelBackgroundColor=#ffffff;imageAspect=0;aspect=fixed;image=https://cdn1.iconfinder.com/data/icons/bootstrap-vol-3/16/hexagon-128.png" vertex="1" parent="a7ma3O0yD8hpmNrmLk-x-239">
          <mxGeometry x="20" y="80" width="50" height="50" as="geometry" />
        </mxCell>
        <mxCell id="a7ma3O0yD8hpmNrmLk-x-244" value="" style="shape=image;html=1;verticalAlign=top;verticalLabelPosition=bottom;labelBackgroundColor=#ffffff;imageAspect=0;aspect=fixed;image=https://cdn1.iconfinder.com/data/icons/bootstrap-vol-3/16/hexagon-128.png" vertex="1" parent="a7ma3O0yD8hpmNrmLk-x-239">
          <mxGeometry x="60" width="50" height="50" as="geometry" />
        </mxCell>
        <mxCell id="a7ma3O0yD8hpmNrmLk-x-245" value="" style="shape=image;html=1;verticalAlign=top;verticalLabelPosition=bottom;labelBackgroundColor=#ffffff;imageAspect=0;aspect=fixed;image=https://cdn1.iconfinder.com/data/icons/bootstrap-vol-3/16/hexagon-128.png" vertex="1" parent="a7ma3O0yD8hpmNrmLk-x-239">
          <mxGeometry x="60" y="80" width="50" height="50" as="geometry" />
        </mxCell>
        <mxCell id="a7ma3O0yD8hpmNrmLk-x-253" value="" style="group" vertex="1" connectable="0" parent="1">
          <mxGeometry x="640" y="240" width="110" height="130" as="geometry" />
        </mxCell>
        <mxCell id="a7ma3O0yD8hpmNrmLk-x-254" value="" style="shape=image;html=1;verticalAlign=top;verticalLabelPosition=bottom;labelBackgroundColor=#ffffff;imageAspect=0;aspect=fixed;image=https://cdn1.iconfinder.com/data/icons/bootstrap-vol-3/16/hexagon-128.png" vertex="1" parent="a7ma3O0yD8hpmNrmLk-x-253">
          <mxGeometry y="40" width="50" height="50" as="geometry" />
        </mxCell>
        <mxCell id="a7ma3O0yD8hpmNrmLk-x-255" value="" style="shape=image;html=1;verticalAlign=top;verticalLabelPosition=bottom;labelBackgroundColor=#ffffff;imageAspect=0;aspect=fixed;image=https://cdn1.iconfinder.com/data/icons/bootstrap-vol-3/16/hexagon-128.png" vertex="1" parent="a7ma3O0yD8hpmNrmLk-x-253">
          <mxGeometry x="40" y="40" width="50" height="50" as="geometry" />
        </mxCell>
        <mxCell id="a7ma3O0yD8hpmNrmLk-x-256" value="" style="shape=image;html=1;verticalAlign=top;verticalLabelPosition=bottom;labelBackgroundColor=#ffffff;imageAspect=0;aspect=fixed;image=https://cdn1.iconfinder.com/data/icons/bootstrap-vol-3/16/hexagon-128.png" vertex="1" parent="a7ma3O0yD8hpmNrmLk-x-253">
          <mxGeometry x="20" width="50" height="50" as="geometry" />
        </mxCell>
        <mxCell id="a7ma3O0yD8hpmNrmLk-x-257" value="" style="shape=image;html=1;verticalAlign=top;verticalLabelPosition=bottom;labelBackgroundColor=#ffffff;imageAspect=0;aspect=fixed;image=https://cdn1.iconfinder.com/data/icons/bootstrap-vol-3/16/hexagon-128.png" vertex="1" parent="a7ma3O0yD8hpmNrmLk-x-253">
          <mxGeometry x="20" y="80" width="50" height="50" as="geometry" />
        </mxCell>
        <mxCell id="a7ma3O0yD8hpmNrmLk-x-258" value="" style="shape=image;html=1;verticalAlign=top;verticalLabelPosition=bottom;labelBackgroundColor=#ffffff;imageAspect=0;aspect=fixed;image=https://cdn1.iconfinder.com/data/icons/bootstrap-vol-3/16/hexagon-128.png" vertex="1" parent="a7ma3O0yD8hpmNrmLk-x-253">
          <mxGeometry x="60" width="50" height="50" as="geometry" />
        </mxCell>
        <mxCell id="a7ma3O0yD8hpmNrmLk-x-259" value="" style="shape=image;html=1;verticalAlign=top;verticalLabelPosition=bottom;labelBackgroundColor=#ffffff;imageAspect=0;aspect=fixed;image=https://cdn1.iconfinder.com/data/icons/bootstrap-vol-3/16/hexagon-128.png" vertex="1" parent="a7ma3O0yD8hpmNrmLk-x-253">
          <mxGeometry x="60" y="80" width="50" height="50" as="geometry" />
        </mxCell>
        <mxCell id="a7ma3O0yD8hpmNrmLk-x-260" value="" style="group" vertex="1" connectable="0" parent="1">
          <mxGeometry x="660" y="360" width="110" height="130" as="geometry" />
        </mxCell>
        <mxCell id="a7ma3O0yD8hpmNrmLk-x-261" value="" style="shape=image;html=1;verticalAlign=top;verticalLabelPosition=bottom;labelBackgroundColor=#ffffff;imageAspect=0;aspect=fixed;image=https://cdn1.iconfinder.com/data/icons/bootstrap-vol-3/16/hexagon-128.png" vertex="1" parent="a7ma3O0yD8hpmNrmLk-x-260">
          <mxGeometry y="40" width="50" height="50" as="geometry" />
        </mxCell>
        <mxCell id="a7ma3O0yD8hpmNrmLk-x-262" value="" style="shape=image;html=1;verticalAlign=top;verticalLabelPosition=bottom;labelBackgroundColor=#ffffff;imageAspect=0;aspect=fixed;image=https://cdn1.iconfinder.com/data/icons/bootstrap-vol-3/16/hexagon-128.png" vertex="1" parent="a7ma3O0yD8hpmNrmLk-x-260">
          <mxGeometry x="40" y="40" width="50" height="50" as="geometry" />
        </mxCell>
        <mxCell id="a7ma3O0yD8hpmNrmLk-x-263" value="" style="shape=image;html=1;verticalAlign=top;verticalLabelPosition=bottom;labelBackgroundColor=#ffffff;imageAspect=0;aspect=fixed;image=https://cdn1.iconfinder.com/data/icons/bootstrap-vol-3/16/hexagon-128.png" vertex="1" parent="a7ma3O0yD8hpmNrmLk-x-260">
          <mxGeometry x="20" width="50" height="50" as="geometry" />
        </mxCell>
        <mxCell id="a7ma3O0yD8hpmNrmLk-x-264" value="" style="shape=image;html=1;verticalAlign=top;verticalLabelPosition=bottom;labelBackgroundColor=#ffffff;imageAspect=0;aspect=fixed;image=https://cdn1.iconfinder.com/data/icons/bootstrap-vol-3/16/hexagon-128.png" vertex="1" parent="a7ma3O0yD8hpmNrmLk-x-260">
          <mxGeometry x="20" y="80" width="50" height="50" as="geometry" />
        </mxCell>
        <mxCell id="a7ma3O0yD8hpmNrmLk-x-265" value="" style="shape=image;html=1;verticalAlign=top;verticalLabelPosition=bottom;labelBackgroundColor=#ffffff;imageAspect=0;aspect=fixed;image=https://cdn1.iconfinder.com/data/icons/bootstrap-vol-3/16/hexagon-128.png" vertex="1" parent="a7ma3O0yD8hpmNrmLk-x-260">
          <mxGeometry x="60" width="50" height="50" as="geometry" />
        </mxCell>
        <mxCell id="a7ma3O0yD8hpmNrmLk-x-266" value="" style="shape=image;html=1;verticalAlign=top;verticalLabelPosition=bottom;labelBackgroundColor=#ffffff;imageAspect=0;aspect=fixed;image=https://cdn1.iconfinder.com/data/icons/bootstrap-vol-3/16/hexagon-128.png" vertex="1" parent="a7ma3O0yD8hpmNrmLk-x-260">
          <mxGeometry x="60" y="80" width="50" height="50" as="geometry" />
        </mxCell>
        <mxCell id="a7ma3O0yD8hpmNrmLk-x-444" value="1" style="ellipse;whiteSpace=wrap;html=1;aspect=fixed;strokeWidth=2;fontFamily=Tahoma;spacingBottom=4;spacingRight=2;strokeColor=#d3d3d3;" vertex="1" parent="1">
          <mxGeometry x="95" y="90" width="20" height="20" as="geometry" />
        </mxCell>
        <mxCell id="a7ma3O0yD8hpmNrmLk-x-445" value="2" style="ellipse;whiteSpace=wrap;html=1;aspect=fixed;strokeWidth=2;fontFamily=Tahoma;spacingBottom=4;spacingRight=2;strokeColor=#d3d3d3;" vertex="1" parent="1">
          <mxGeometry x="140" y="90" width="20" height="20" as="geometry" />
        </mxCell>
        <mxCell id="a7ma3O0yD8hpmNrmLk-x-446" value="3" style="ellipse;whiteSpace=wrap;html=1;aspect=fixed;strokeWidth=2;fontFamily=Tahoma;spacingBottom=4;spacingRight=2;strokeColor=#d3d3d3;" vertex="1" parent="1">
          <mxGeometry x="180" y="90" width="20" height="20" as="geometry" />
        </mxCell>
        <mxCell id="a7ma3O0yD8hpmNrmLk-x-447" value="4" style="ellipse;whiteSpace=wrap;html=1;aspect=fixed;strokeWidth=2;fontFamily=Tahoma;spacingBottom=4;spacingRight=2;strokeColor=#d3d3d3;" vertex="1" parent="1">
          <mxGeometry x="220" y="90" width="20" height="20" as="geometry" />
        </mxCell>
        <mxCell id="a7ma3O0yD8hpmNrmLk-x-448" value="5" style="ellipse;whiteSpace=wrap;html=1;aspect=fixed;strokeWidth=2;fontFamily=Tahoma;spacingBottom=4;spacingRight=2;strokeColor=#d3d3d3;" vertex="1" parent="1">
          <mxGeometry x="260" y="90" width="20" height="20" as="geometry" />
        </mxCell>
        <mxCell id="a7ma3O0yD8hpmNrmLk-x-449" value="6" style="ellipse;whiteSpace=wrap;html=1;aspect=fixed;strokeWidth=2;fontFamily=Tahoma;spacingBottom=4;spacingRight=2;strokeColor=#d3d3d3;" vertex="1" parent="1">
          <mxGeometry x="300" y="90" width="20" height="20" as="geometry" />
        </mxCell>
        <mxCell id="a7ma3O0yD8hpmNrmLk-x-450" value="7" style="ellipse;whiteSpace=wrap;html=1;aspect=fixed;strokeWidth=2;fontFamily=Tahoma;spacingBottom=4;spacingRight=2;strokeColor=#d3d3d3;" vertex="1" parent="1">
          <mxGeometry x="335" y="90" width="20" height="20" as="geometry" />
        </mxCell>
        <mxCell id="a7ma3O0yD8hpmNrmLk-x-451" value="8" style="ellipse;whiteSpace=wrap;html=1;aspect=fixed;strokeWidth=2;fontFamily=Tahoma;spacingBottom=4;spacingRight=2;strokeColor=#d3d3d3;" vertex="1" parent="1">
          <mxGeometry x="380" y="90" width="20" height="20" as="geometry" />
        </mxCell>
        <mxCell id="a7ma3O0yD8hpmNrmLk-x-456" value="9" style="ellipse;whiteSpace=wrap;html=1;aspect=fixed;strokeWidth=2;fontFamily=Tahoma;spacingBottom=4;spacingRight=2;strokeColor=#d3d3d3;" vertex="1" parent="1">
          <mxGeometry x="415" y="90" width="20" height="20" as="geometry" />
        </mxCell>
        <mxCell id="a7ma3O0yD8hpmNrmLk-x-457" value="9" style="ellipse;whiteSpace=wrap;html=1;aspect=fixed;strokeWidth=2;fontFamily=Tahoma;spacingBottom=4;spacingRight=2;strokeColor=#d3d3d3;" vertex="1" parent="1">
          <mxGeometry x="455" y="90" width="20" height="20" as="geometry" />
        </mxCell>
        <mxCell id="a7ma3O0yD8hpmNrmLk-x-458" value="9" style="ellipse;whiteSpace=wrap;html=1;aspect=fixed;strokeWidth=2;fontFamily=Tahoma;spacingBottom=4;spacingRight=2;strokeColor=#d3d3d3;" vertex="1" parent="1">
          <mxGeometry x="500" y="90" width="20" height="20" as="geometry" />
        </mxCell>
        <mxCell id="a7ma3O0yD8hpmNrmLk-x-459" value="9" style="ellipse;whiteSpace=wrap;html=1;aspect=fixed;strokeWidth=2;fontFamily=Tahoma;spacingBottom=4;spacingRight=2;strokeColor=#d3d3d3;" vertex="1" parent="1">
          <mxGeometry x="540" y="90" width="20" height="20" as="geometry" />
        </mxCell>
        <mxCell id="a7ma3O0yD8hpmNrmLk-x-460" value="9" style="ellipse;whiteSpace=wrap;html=1;aspect=fixed;strokeWidth=2;fontFamily=Tahoma;spacingBottom=4;spacingRight=2;strokeColor=#d3d3d3;" vertex="1" parent="1">
          <mxGeometry x="580" y="90" width="20" height="20" as="geometry" />
        </mxCell>
        <mxCell id="a7ma3O0yD8hpmNrmLk-x-461" value="9" style="ellipse;whiteSpace=wrap;html=1;aspect=fixed;strokeWidth=2;fontFamily=Tahoma;spacingBottom=4;spacingRight=2;strokeColor=#d3d3d3;" vertex="1" parent="1">
          <mxGeometry x="620" y="90" width="20" height="20" as="geometry" />
        </mxCell>
        <mxCell id="a7ma3O0yD8hpmNrmLk-x-462" value="9" style="ellipse;whiteSpace=wrap;html=1;aspect=fixed;strokeWidth=2;fontFamily=Tahoma;spacingBottom=4;spacingRight=2;strokeColor=#d3d3d3;" vertex="1" parent="1">
          <mxGeometry x="660" y="90" width="20" height="20" as="geometry" />
        </mxCell>
        <mxCell id="a7ma3O0yD8hpmNrmLk-x-463" value="9" style="ellipse;whiteSpace=wrap;html=1;aspect=fixed;strokeWidth=2;fontFamily=Tahoma;spacingBottom=4;spacingRight=2;strokeColor=#d3d3d3;" vertex="1" parent="1">
          <mxGeometry x="705" y="90" width="20" height="20" as="geometry" />
        </mxCell>
        <mxCell id="a7ma3O0yD8hpmNrmLk-x-465" value="A" style="text;html=1;align=center;verticalAlign=middle;resizable=0;points=[];autosize=1;strokeColor=none;fillColor=none;" vertex="1" parent="1">
          <mxGeometry x="40" y="135" width="30" height="30" as="geometry" />
        </mxCell>
        <mxCell id="a7ma3O0yD8hpmNrmLk-x-466" value="B" style="text;html=1;align=center;verticalAlign=middle;resizable=0;points=[];autosize=1;strokeColor=none;fillColor=none;" vertex="1" parent="1">
          <mxGeometry x="30" y="170" width="30" height="30" as="geometry" />
        </mxCell>
        <mxCell id="a7ma3O0yD8hpmNrmLk-x-467" value="C" style="text;html=1;align=center;verticalAlign=middle;resizable=0;points=[];autosize=1;strokeColor=none;fillColor=none;" vertex="1" parent="1">
          <mxGeometry x="35" y="210" width="30" height="30" as="geometry" />
        </mxCell>
        <mxCell id="a7ma3O0yD8hpmNrmLk-x-470" value="E" style="text;html=1;align=center;verticalAlign=middle;resizable=0;points=[];autosize=1;strokeColor=none;fillColor=none;" vertex="1" parent="1">
          <mxGeometry x="50" y="290" width="30" height="30" as="geometry" />
        </mxCell>
        <mxCell id="a7ma3O0yD8hpmNrmLk-x-472" value="G" style="text;html=1;align=center;verticalAlign=middle;resizable=0;points=[];autosize=1;strokeColor=none;fillColor=none;" vertex="1" parent="1">
          <mxGeometry x="80" y="370" width="30" height="30" as="geometry" />
        </mxCell>
        <mxCell id="a7ma3O0yD8hpmNrmLk-x-473" value="H" style="text;html=1;align=center;verticalAlign=middle;resizable=0;points=[];autosize=1;strokeColor=none;fillColor=none;" vertex="1" parent="1">
          <mxGeometry x="60" y="410" width="30" height="30" as="geometry" />
        </mxCell>
      </root>
    </mxGraphModel>
  </diagram>
</mxfile>
